<?xml version="1.0" encoding="UTF-8"?>
<svg id="Layer_1" data-name="Layer 1" xmlns="http://www.w3.org/2000/svg" viewBox="0 0 713.77 711.51">
  <path d="M293.23,255.48c-6.54.6-12.42,2.35-18.31,4.09-9.86,2.92-19.1,6.8-27.06,12.58-3.74,2.71-7.02,5.72-9.32,9.47-1.93,3.13-4.72,3.85-7.64,1.72-7.61-5.57-15.03-11.33-22.38-17.16-2.08-1.66-2.25-4.08.49-5.24,18.92-8.04,30.01-22.72,43.55-35.34,7.36-6.86,15.59-12.8,25.87-16.52,9.19-3.32,18.27-3.45,27.29.32,3.54,1.48,7.26,2.78,10.49,4.65,4.48,2.58,9.31,2.88,14.44,2.75,2.19-.05,2.78-.73,2.78-2.44-.05-18.75,0-37.5-.08-56.25,0-1.56-.5-3.18-1.09-4.68-5.4-13.6-4.07-26.96,1.67-40.25,1.79-4.15,3.88-8.27,3.04-12.94-.9-4.98-3.28-9.12-8.28-12.1-3.6-2.15-6.54-4.87-9.07-7.88-9.97-11.8-8.99-26.65,3.33-37.36,9.75-8.48,20.33-16.31,30.6-24.38,2.58-2.02,5.43-2.08,8.04.03,10.15,8.17,20.72,16.02,30.29,24.65,14.64,13.2,13.32,31.2-3.79,42.9-9.18,6.27-11.99,15.94-7.33,25.43,6.91,14.11,8.13,28.54,2.03,43.16-.82,1.94-1.05,4-1.05,6.07,0,17.5.02,34.98-.14,52.48-.02,2.63.7,3.48,4.03,3.5,4.7.03,8.79-.9,12.84-2.86,7.33-3.53,14.64-7.31,23.49-7.52,12.64-.29,22.45,5.04,31.56,11.5,8.18,5.79,14.9,12.75,21.6,19.7,8.53,8.87,17.77,17.07,30.09,22.43,4,1.75,4.34,4.22,1.06,6.9-6.65,5.43-13.4,10.79-20.28,16.02-3.48,2.64-5.89,2.22-8.16-1.25-3.78-5.8-9.42-10.07-15.87-13.62-11.09-6.1-23.44-9.76-36.26-12.36-.74-.15-1.56-.08-2.41-.11.13.39.11.66.26.77,8.2,5.96,8.31,9.5.45,15.74-.79.63-1.55,1.31-2.41,1.86-4.71,3.03-6.32,6.91-6.3,11.93.15,63.22.17,126.44.05,189.67-.06,27.82-6.35,54.44-22.86,79-8.14,12.11-19.09,22.25-31,31.76-2.79,2.22-5.27,1.97-8.6-.6-17.78-13.67-31.41-29.73-40.18-48.63-8.33-17.91-11.8-36.55-12.18-55.61-.88-43.78-.24-87.57-.36-131.35-.06-21.95-.03-43.9.06-65.85.02-3.42-1.01-6.23-4.18-8.52-2.49-1.79-4.87-3.7-7.1-5.69-4.56-4.08-4.18-8.15.88-11.84,1.09-.8,2.64-1.19,3.41-2.75h-.02.02ZM360.86,370.13h-.47c0,34.87,0,69.74-.02,104.61,0,2.05,1.2,65.3-2.52,65.14-3.25-.15-2.82-63.31-2.82-65.24-.05-24.92-.08-49.85-.02-74.77.1-43.67.28-87.34.4-131.02,0-2.05.6-4.34-.9-6.04-5.5-6.26-11.27-12.25-22.12-11.54-1.82.12-3.02.44-4.18,1.58-3.45,3.39-6.91,6.8-10.63,10-1.71,1.47-1.46,2.26.16,3.53,4.94,3.91,6.98,8.69,6.86,14.45-.31,14.4-.28,28.81-.24,43.22.11,51.21-.87,102.44.62,153.64.28,9.48,1.12,18.95,2.69,28.34,3.11,18.55,14.2,33.84,28.3,47.88.84.83,1.32,1.33,2.43.18,11.58-11.99,21.88-24.54,26.73-39.71,4.55-14.26,5.82-28.81,5.65-43.46-.69-62.88-.03-125.76-.16-188.63-.02-6.59,1.59-12.18,7.61-16.6,1.31-.96,1.34-1.66.07-2.78-2.85-2.47-5.87-4.89-8.11-7.72-2.92-3.67-6.51-4.34-11.47-3.86-9.68.94-17.83,7.81-17.84,15.87-.03,34.3-.02,68.6-.02,102.9h0ZM322.07,251.53c-4.41,0-7.82-.01-11.22,0-1.45,0-2.6.49-3.48,1.51-2.43,2.8-5.62,4.98-8.62,7.31-5.2,4.02-5.42,4.21-.09,7.9,7.13,4.93,10.03,10.69,9.98,18.72-.38,61.97-.18,123.94-.17,185.91,0,7.89.65,15.75,1.54,23.61,3.53,31.48,17.52,58.9,44.72,81.31,2.15,1.77,3.34,1.62,5.26.02,4.56-3.79,9.15-7.57,13.13-11.8,21.54-22.79,31.07-49.17,33.26-77.74,1.34-17.36.94-34.75.94-52.12.02-51-.03-101.99-.2-152.98-.02-4.67,1.6-8.48,5.56-11.69,1.86-1.51,3.52-3.26,5.6-4.53,3.19-1.94,2.74-3.37.13-5.47-3.52-2.84-7.63-5.24-10.29-8.81-.53-.71-1.5-1.02-2.49-1.03-3.48-.03-6.96-.01-10.73-.01.37.82.44,1.15.64,1.42,2.14,2.83,5.29,4.93,7.83,7.47,3.56,3.55,3.7,4.73-.28,7.76-4.88,3.73-6.86,8.08-6.84,13.65.17,52.36-.9,104.73-.21,157.09.22,16.8.62,33.59-.22,50.4-1.38,27.56-14.86,50.66-35.85,71.23-1.2,1.18-2.37,2.25-4.23.42-10.75-10.69-21.12-21.57-27.43-34.73-6.78-14.16-8.4-29.07-8.75-44.02-1.55-66.19-.97-132.39-.37-198.59.06-6.22-1.22-11.36-7.14-15.57-3.69-2.62-3.33-4.29.04-7.16,3.32-2.82,6.63-5.66,9.95-9.52l.02.02h0ZM357.3,257.66c7.46-9.55,18.11-11.48,30.12-11.09,11.07.36,22.19-.21,33.15,1.53,23.21,3.69,45.09,9.61,60.95,25.53,1.01,1.02,1.86,1.51,3.29.38,3.47-2.75,7.05-5.41,10.59-8.11,1.16-.89,1.69-1.61-.13-2.58-11.53-6.26-20.24-14.93-28.91-23.64-6.91-6.94-14.05-13.73-22.71-19.25-11.11-7.08-22.67-9.98-35.51-3.05-2.28,1.24-4.85,2.1-7.21,3.26-3.88,1.91-7.97,2.68-12.51,2.65-16.7-.13-33.42-.49-50.08.1-12.14.43-23.26-.86-33.53-6.59-9.71-5.42-19.43-4.2-28.75,1.02-2.61,1.46-5.21,2.95-7.65,4.59-6.97,4.69-12.66,10.4-18.29,16.17-8.9,9.14-17.67,18.38-29.97,24.62-1.79.91-1.37,1.55-.06,2.53,3.58,2.66,7.11,5.35,10.55,8.14,1.65,1.35,2.72,1.38,4.22-.23,9.67-10.42,23.02-16.32,37.49-20.63,19.4-5.78,39.62-6.3,59.94-6.26,9.29.02,17.16,2.45,23.09,8.63.59.61,1.11,1.28,1.95,2.27h0ZM357.51,90.22c12.09.15,21.47-5.01,29.19-12.6,9.19-9.03,9.38-19.38.24-28.33-8.53-8.36-18.81-15.29-28.14-23-1.24-1.02-2.23-1.09-3.44-.07-9.18,7.68-19.53,14.35-27.94,22.67-3.02,2.99-4.98,6.46-5.87,10.39-3.97,17.69,20.97,32.2,35.95,30.93h0,0ZM355.13,137.82h-.35c0-5.49-.02-10.96,0-16.44,0-1.7.87-2.89,3.13-2.89,2.12,0,2.77,1.17,2.86,2.71.06,1.13.22,2.28.2,3.42-.09,7.88-.24,15.76-.32,23.63-.09,8.09-.06,8.05,9.88,7.86,2.07-.04,3.06-.54,3.82-2.26,5.74-12.8,5.12-25.43-.75-38.06-.7-1.51-1.57-2.15-3.52-2.17-8.17-.1-16.34-.29-24.51-.5-1.66-.04-2.78.22-3.46,1.72-4.97,11.05-6.81,22.27-2.81,33.83,2.7,7.78,2.76,7.68,12.44,7.55,2.73-.03,3.52-.75,3.44-2.97-.17-5.13-.06-10.27-.06-15.41h0ZM357.27,177.05v-.13c4.37,0,8.75-.05,13.11.02,2.23.03,3.23-.66,3.18-2.6-.1-3.65-.13-7.3,0-10.96.06-2.06-1.19-2.47-3.29-2.48-8.44-.03-16.89-.1-25.32-.26-2.21-.04-3.33.43-3.29,2.42.08,3.88.08,7.76,0,11.64-.03,1.76.76,2.42,2.9,2.37,4.23-.1,8.46-.03,12.7-.03h0ZM357.43,181.76v-.15c-3.96,0-7.93.18-11.86-.06-3.24-.21-4.01.95-3.9,3.34.13,3.18.15,6.39,0,9.57-.11,2.25.93,2.95,3.58,2.91,8.3-.14,16.6-.18,24.9-.08,2.79.03,3.52-.9,3.42-3.03-.13-3.18-.13-6.39.04-9.57.12-2.19-.75-3.06-3.47-2.97-4.22.15-8.45.04-12.69.04h-.02ZM357.82,202.04v-.4c-4.37,0-8.73.08-13.08-.03-2.12-.05-2.98.62-2.99,2.34,0,3.64-.02,7.3-.12,10.93-.05,1.58.65,2.28,2.6,2.27,8.87-.07,17.74-.11,26.61-.13,1.89,0,2.7-.66,2.67-2.25-.06-3.53-.07-7.07.03-10.6.05-1.63-.67-2.2-2.62-2.16-4.37.1-8.74.03-13.1.03h-.02ZM357.5,108.91v-.14c3.42,0,6.84-.06,10.26.02,2.01.04,2.93-.23,2.54-2.26-.62-3.27-.65-6.61.06-9.9.43-2-.32-2.35-2.6-1.94-6.63,1.2-13.31,1.16-19.91-.17-2.63-.54-3.5,0-3.17,2.25.53,3.62,1.29,7.23.09,10.88-.52,1.58,1.12,1.22,2.07,1.24,3.56.04,7.1.02,10.67.02h0Z" style="stroke-width: 0px;"/>
  <path d="M351.2,239.02c-12.82.39-31.9-.99-50.8,1.55-14.22,1.9-28.03,5.08-41.13,10.19-7.83,3.06-14.09,7.81-20.13,12.83-1.64,1.38-3.3,2.73-4.96,4.09-1.02.83-2.05,1.07-3.18.1-1.01-.87-1.81-1.77-.91-3.02.28-.39.62-.76,1.01-1.08,14.02-11.39,26.54-24.06,41.76-34.42,4.45-3.03,9.05-5.91,14.72-7.29,5.64-1.37,11.07-1.24,16.24,1.29.83.4,1.75.7,2.49,1.19,12.51,8.31,26.98,10.38,42.49,9.77,9.7-.38,19.43-.03,29.15-.2,10.93-.2,20.55-3.76,29.23-8.97,10.05-6.03,19.66-4.99,29.25.48,6.69,3.82,12.61,8.39,18.33,13.17,9.19,7.68,18.47,15.29,27.7,22.93.49.4,1.03.77,1.44,1.22,1.26,1.41,3.35,2.69.97,4.66-2.59,2.14-3.97.05-5.27-1.18-19.06-18.05-44.69-23.75-71.78-26.45-16.76-1.66-33.63-.89-56.64-.87h.02ZM262.07,244.5c16.82-5.26,34.04-8.6,53.07-9.56-4.42-2.41-7.89-4.02-10.97-6.05-6.06-4-12.21-3.97-18.7-.94-9.05,4.24-16.49,10.09-23.41,16.55h0ZM401.02,234.55c18.15,1.18,35.54,4.45,52.41,9.88-2.66-2.47-5.36-4.68-8.2-6.78-5.12-3.78-10.29-7.55-16.48-10.1-4.11-1.69-8.46-2.83-12.97-.98-5.24,2.16-10.04,4.94-14.75,7.97h0Z" style="stroke-width: 0px;"/>
  <path d="M507.77,372.82c-6.47-1.15-12.59-1.02-18.72-.9-10.27.21-20.17,1.51-29.31,4.98-4.29,1.63-8.22,3.67-11.4,6.68-2.65,2.51-5.53,2.47-7.81-.37-5.94-7.4-11.65-14.93-17.28-22.5-1.59-2.15-1.14-4.54,1.8-4.93,20.3-2.75,34.73-13.99,51-22.59,8.84-4.67,18.29-8.24,29.16-9.1,9.72-.77,18.52,1.51,26.28,7.55,3.04,2.37,6.31,4.61,8.96,7.28,3.68,3.68,8.27,5.25,13.25,6.49,2.13.53,2.87.03,3.31-1.62,4.69-18.12,9.48-36.22,14.14-54.35.39-1.51.33-3.2.13-4.81-1.77-14.57,2.88-27.12,11.78-38.43,2.77-3.53,5.84-6.96,6.21-11.69.39-5.05-.86-9.68-4.94-13.88-2.94-3.03-5.08-6.44-6.77-10.01-6.65-14.05-1.95-28.12,12.66-35.21,11.56-5.61,23.76-10.36,35.72-15.44,3-1.27,5.77-.57,7.76,2.16,7.74,10.58,15.97,20.97,23.03,31.83,10.8,16.63,4.98,33.67-14.51,40.43-10.45,3.62-15.61,12.22-13.51,22.62,3.11,15.46.64,29.72-8.95,42.22-1.28,1.66-2.02,3.58-2.55,5.59-4.42,16.9-8.83,33.79-13.4,50.65-.69,2.53-.2,3.55,3.01,4.46,4.53,1.27,8.72,1.46,13.12.64,7.97-1.46,15.99-3.18,24.59-1.03,12.28,3.07,20.41,10.82,27.58,19.48,6.44,7.77,11.17,16.26,15.88,24.76,6,10.83,12.85,21.2,23.4,29.64,3.43,2.75,3.13,5.23-.72,6.95-7.8,3.48-15.67,6.87-23.64,10.1-4.03,1.63-6.25.59-7.56-3.37-2.19-6.61-6.55-12.23-11.89-17.37-9.17-8.83-20.17-15.64-31.9-21.55-.68-.35-1.48-.49-2.3-.75.02.41-.06.67.06.82,6.42,7.94,5.63,11.38-3.54,15.32-.92.4-1.83.86-2.8,1.16-5.32,1.67-7.85,5-9.1,9.85-15.84,61.11-31.8,122.18-47.9,183.21-7.08,26.86-19.89,50.91-42.05,70.25-10.92,9.53-24.06,16.43-37.97,22.46-3.26,1.41-5.59.5-8.15-2.86-13.72-17.92-22.82-37.05-26.52-57.62-3.52-19.51-2.16-38.43,2.29-56.94,10.22-42.52,21.91-84.65,32.85-126.97,5.49-21.22,11.07-42.41,16.71-63.59.88-3.3.59-6.29-1.88-9.34-1.95-2.39-3.77-4.86-5.42-7.38-3.38-5.15-1.97-8.98,3.84-11.2,1.26-.48,2.85-.45,3.98-1.75h-.02s.01,0,.01,0ZM544.11,501.48l-.46-.13c-8.81,33.68-17.62,67.36-26.47,101.04-.52,1.98-15.35,63.39-18.9,62.25-3.1-1,13.28-61.9,13.77-63.76,6.25-24.08,12.52-48.17,18.88-72.22,11.14-42.16,22.34-84.29,33.5-126.44.52-1.98,1.67-4.03.66-6.07-3.73-7.5-7.79-14.82-18.45-17.01-1.78-.37-3.03-.37-4.44.42-4.19,2.36-8.39,4.74-12.79,6.84-2.02.97-1.98,1.8-.74,3.46,3.78,5.09,4.55,10.24,2.97,15.78-3.94,13.83-7.55,27.75-11.16,41.68-12.84,49.5-26.74,98.72-38.24,148.57-2.13,9.23-3.71,18.6-4.57,28.09-1.69,18.74,5.16,36.45,15.23,53.75.6,1.03.94,1.63,2.3.82,14.21-8.51,27.34-17.9,35.85-31.27,8-12.56,12.9-26.28,16.45-40.48,15.22-60.92,31.76-121.48,47.53-182.25,1.65-6.37,4.61-11.34,11.54-14.01,1.5-.58,1.72-1.25.77-2.66-2.12-3.14-4.43-6.28-5.88-9.6-1.89-4.32-5.19-5.92-10.1-6.77-9.59-1.66-19.2,2.82-21.24,10.6-8.7,33.12-17.35,66.25-26.02,99.38h0ZM536.62,376.64c-4.26-1.17-7.55-2.09-10.84-2.98-1.4-.38-2.63-.21-3.74.54-3.05,2.06-6.68,3.33-10.17,4.78-6.04,2.51-6.3,2.63-2.08,7.61,5.64,6.66,6.98,12.99,4.91,20.73-16.03,59.76-31.5,119.67-47.16,179.53-2,7.62-3.35,15.39-4.48,23.21-4.55,31.34,2.03,61.54,22.64,90.39,1.63,2.28,2.82,2.45,5.08,1.42,5.36-2.45,10.76-4.88,15.67-7.91,26.57-16.3,42.44-39.26,51.78-66.27,5.68-16.42,9.69-33.32,14.09-50.09,12.91-49.25,25.75-98.52,38.48-147.82,1.16-4.51,3.69-7.77,8.32-9.81,2.18-.96,4.22-2.22,6.55-2.89,3.57-1.02,3.5-2.53,1.5-5.25-2.69-3.68-6.04-7.09-7.71-11.23-.34-.83-1.19-1.38-2.15-1.66-3.35-.95-6.72-1.86-10.36-2.86.15.89.14,1.23.26,1.54,1.35,3.31,3.86,6.16,5.68,9.29,2.54,4.37,2.38,5.55-2.24,7.42-5.66,2.31-8.67,5.98-10.06,11.37-13.08,50.62-27.35,100.92-39.91,151.68-4.03,16.29-7.89,32.61-12.95,48.63-8.3,26.25-27.16,44.99-52.63,59.29-1.46.82-2.86,1.55-4.19-.72-7.68-13.18-14.95-26.43-17.71-40.81-2.97-15.47-.77-30.31,2.67-44.84,15.23-64.34,32.53-128.14,49.84-191.92,1.63-6,1.69-11.3-2.96-16.93-2.9-3.51-2.13-5.03,1.85-6.9,3.92-1.84,7.84-3.71,12.02-6.56v.03s0,0,0,0ZM569.1,391.91c9.62-7.25,20.39-6.29,31.89-2.73,10.6,3.28,21.49,5.68,31.63,10.27,21.49,9.72,41.12,21.24,52.42,40.82.72,1.25,1.41,1.95,3.08,1.23,4.05-1.74,8.17-3.36,12.28-5.03,1.35-.55,2.04-1.1.53-2.53-9.56-9.1-15.77-19.78-21.95-30.5-4.92-8.54-10.1-16.98-17.07-24.61-8.94-9.79-19.37-15.65-33.53-12.36-2.52.59-5.22.74-7.79,1.24-4.23.82-8.37.48-12.76-.76-16.1-4.55-32.16-9.33-48.4-13.19-11.83-2.8-22.25-7-30.72-15.25-8.01-7.81-17.7-9.21-28.03-6.63-2.89.72-5.77,1.46-8.55,2.41-7.92,2.68-14.86,6.69-21.75,10.77-10.91,6.47-21.72,13.07-35.18,15.84-1.95.4-1.71,1.13-.69,2.42,2.78,3.52,5.51,7.06,8.13,10.66,1.25,1.74,2.28,2.06,4.13.9,11.98-7.5,26.36-9.66,41.43-9.99,20.2-.44,39.87,4.42,59.48,9.85,8.97,2.48,15.96,6.92,20.12,14.46.42.75.75,1.53,1.31,2.71h0ZM611.62,230.23c11.64,3.35,22.01.85,31.38-4.43,11.16-6.29,13.95-16.23,7.4-27.3-6.12-10.33-14.31-19.75-21.37-29.67-.94-1.32-1.87-1.64-3.3-.98-10.81,4.98-22.49,8.68-32.72,14.49-3.67,2.09-6.44,4.92-8.29,8.48-8.31,16.04,12.11,36.66,26.91,39.41h0s0,0,0,0ZM597.3,275.58l-.34-.09c1.39-5.3,2.76-10.59,4.16-15.88.44-1.64,1.57-2.57,3.76-1.97,2.05.56,2.38,1.86,2.07,3.37-.23,1.11-.36,2.26-.67,3.35-2.08,7.59-4.22,15.16-6.28,22.74-2.13,7.79-2.1,7.76,7.56,10.21,2.01.51,3.09.28,4.26-1.17,8.78-10.84,11.37-23.21,8.9-36.96-.29-1.64-.98-2.49-2.85-3.03-7.87-2.27-15.71-4.62-23.55-6.98-1.59-.48-2.75-.52-3.78.75-7.6,9.36-12.21,19.71-11.26,31.93.64,8.23.73,8.15,10.11,10.6,2.64.7,3.59.21,4.08-1.96,1.13-5,2.54-9.94,3.84-14.9h0ZM589.45,314.03l.03-.13c4.22,1.16,8.47,2.27,12.66,3.5,2.15.62,3.29.22,3.73-1.67.82-3.55,1.72-7.09,2.77-10.59.58-1.97-.52-2.7-2.55-3.27-8.14-2.27-16.29-4.57-24.39-6.96-2.12-.63-3.32-.47-3.79,1.47-.9,3.77-1.89,7.52-2.94,11.24-.48,1.69.12,2.54,2.2,3.06,4.11,1.02,8.18,2.22,12.28,3.34h0ZM588.42,318.63l.04-.14c-3.83-1.05-7.7-1.92-11.44-3.2-3.08-1.06-4.11-.15-4.61,2.19-.67,3.11-1.47,6.21-2.42,9.25-.68,2.15.15,3.1,2.72,3.76,8.05,2.06,16.07,4.23,24.07,6.52,2.69.77,3.62.06,4.07-2.02.67-3.11,1.49-6.21,2.46-9.24.67-2.09.05-3.16-2.6-3.79-4.12-.98-8.18-2.21-12.27-3.33h-.02ZM583.66,338.32l.1-.39c-4.22-1.16-8.45-2.24-12.63-3.5-2.04-.61-3.04-.19-3.48,1.47-.92,3.52-1.86,7.04-2.88,10.53-.44,1.51.05,2.38,1.94,2.88,8.59,2.28,17.16,4.6,25.73,6.93,1.82.5,2.77.08,3.15-1.47.83-3.43,1.72-6.85,2.71-10.23.46-1.57-.09-2.3-1.98-2.78-4.24-1.06-8.45-2.29-12.66-3.44h0s0-.01,0-.01ZM606.89,248.28l.04-.14c3.3.91,6.62,1.76,9.9,2.74,1.93.58,2.88.56,3.03-1.51.23-3.32,1.04-6.56,2.55-9.54.92-1.81.28-2.35-2.02-2.56-6.71-.6-13.15-2.4-19.19-5.44-2.41-1.22-3.38-.93-3.63,1.34-.4,3.63-.58,7.33-2.67,10.54-.9,1.38.77,1.48,1.69,1.74,3.42.99,6.85,1.9,10.3,2.85h.01Z" style="stroke-width: 0px;"/>
  <path d="M567.92,372.29c-12.48-3.02-30.56-9.41-49.46-11.97-14.22-1.93-28.36-2.52-42.31-1.06-8.33.88-15.59,3.8-22.68,7.05-1.94.89-3.88,1.76-5.83,2.63-1.2.53-2.25.49-3.09-.75-.75-1.11-1.3-2.19-.12-3.16.37-.3.79-.57,1.25-.77,16.42-7.29,31.71-16.21,49.03-22.18,5.07-1.75,10.24-3.31,16.06-3.14,5.79.17,11,1.73,15.36,5.55.7.61,1.51,1.14,2.11,1.81,9.98,11.34,23.43,17.18,38.58,20.7,9.46,2.21,18.78,5.12,28.2,7.54,10.61,2.71,20.8,1.81,30.5-.91,11.23-3.16,20.25.39,28.13,8.22,5.49,5.46,10.06,11.45,14.38,17.58,6.94,9.86,13.97,19.66,20.96,29.49.37.52.8,1.01,1.08,1.56.86,1.69,2.56,3.49-.24,4.76-3.04,1.38-3.85-1-4.79-2.54-13.84-22.49-37.16-34.79-62.64-44.58-15.77-6.05-32.26-9.78-54.49-15.85h.01ZM480.44,353.95c17.57-.62,35.05.72,53.68,4.83-3.66-3.5-6.6-5.97-9.07-8.76-4.85-5.47-10.79-7.07-17.82-5.86-9.82,1.7-18.47,5.37-26.79,9.78h0ZM617.18,381.17c17.24,5.95,33.2,13.73,48.13,23.44-1.94-3.09-4-5.95-6.21-8.73-3.99-5.01-8.03-10.02-13.36-14.12-3.55-2.72-7.46-4.98-12.28-4.38-5.6.7-10.94,2.11-16.27,3.78h0Z" style="stroke-width: 0px;"/>
  <path d="M81.38,407.42c-6.16,2.32-11.4,5.56-16.65,8.81-8.79,5.44-16.73,11.64-22.96,19.32-2.92,3.61-5.33,7.39-6.61,11.62-1.07,3.53-3.58,4.97-6.94,3.68-8.76-3.37-17.38-6.96-25.95-10.64-2.43-1.05-3.2-3.34-.85-5.19,16.24-12.78,23.25-29.9,33.13-45.68,5.38-8.57,11.82-16.5,20.81-22.82,8.04-5.64,16.78-8.18,26.44-6.92,3.79.49,7.72.76,11.31,1.71,4.98,1.31,9.72.31,14.64-1.17,2.11-.63,2.51-1.44,2.07-3.1-4.78-18.1-9.48-36.22-14.29-54.31-.39-1.51-1.28-2.94-2.24-4.23-8.65-11.71-10.75-24.96-8.56-39.32.68-4.48,1.66-9.02-.33-13.3-2.13-4.58-5.47-7.94-11.06-9.49-4.02-1.12-7.55-2.98-10.75-5.21-12.62-8.76-15.42-23.36-6.23-36.97,7.28-10.78,15.52-21.14,23.4-31.66,1.98-2.64,4.72-3.44,7.77-2.1,11.87,5.2,24.07,9.98,35.48,15.78,17.47,8.87,20.75,26.61,7.18,42.44-7.28,8.49-7.55,18.58-.65,26.5,10.24,11.79,15.07,25.41,12.87,41.15-.3,2.09,0,4.14.52,6.15,4.42,16.9,8.86,33.79,13.13,50.73.64,2.55,1.56,3.18,4.78,2.32,4.54-1.22,8.27-3.2,11.68-6.16,6.19-5.35,12.3-10.94,20.79-13.49,12.14-3.63,22.96-1.08,33.39,2.74,9.37,3.43,17.61,8.36,25.84,13.31,10.48,6.3,21.48,11.78,34.73,13.69,4.31.62,5.26,2.92,2.77,6.38-5.05,7.01-10.22,13.97-15.54,20.85-2.69,3.47-5.13,3.71-8.19.95-5.12-4.6-11.65-7.23-18.77-8.95-12.25-2.95-25.11-3.21-38.15-2.33-.75.05-1.52.33-2.36.53.22.34.27.61.45.68,9.43,3.59,10.43,6.97,4.41,15.08-.6.81-1.17,1.68-1.86,2.44-3.79,4.17-4.35,8.35-3.07,13.19,16.12,61.03,32.12,122.09,47.98,183.19,6.98,26.89,7.63,54.27-2.12,82.37-4.8,13.85-12.81,26.55-21.91,38.89-2.13,2.89-4.59,3.3-8.45,1.7-20.63-8.49-37.85-20.4-51.1-36.32-12.57-15.09-20.63-32.18-25.82-50.48-11.92-42.06-22.36-84.53-33.55-126.78-5.61-21.19-11.13-42.4-16.58-63.62-.85-3.3-2.55-5.75-6.19-7.12-2.85-1.07-5.64-2.28-8.3-3.62-5.44-2.73-6.09-6.77-2.14-11.67.86-1.06,2.25-1.85,2.6-3.56h-.02s.02,0,.02,0ZM175.67,500.24l-.46.13c8.81,33.68,17.63,67.36,26.42,101.05.52,1.98,17.66,62.76,14.03,63.58-3.17.72-18.72-60.41-19.21-62.27-6.34-24.06-12.67-48.13-18.91-72.22-10.94-42.21-21.81-84.43-32.73-126.66-.52-1.98-.52-4.35-2.39-5.59-6.89-4.59-13.98-8.84-24.29-5.28-1.73.6-2.81,1.23-3.64,2.64-2.48,4.19-4.95,8.4-7.74,12.48-1.28,1.87-.83,2.57,1.05,3.37,5.76,2.47,8.94,6.54,10.28,12.14,3.34,14,7.01,27.9,10.69,41.81,13.05,49.44,25.05,99.18,39.43,148.24,2.66,9.09,5.87,18,9.76,26.66,7.69,17.09,22.27,28.93,39.44,38.75,1.02.58,1.61.93,2.39-.47,8.15-14.65,14.93-29.51,15.78-45.44.8-14.98-1.66-29.37-5.52-43.48-16.56-60.55-31.81-121.46-47.83-182.16-1.68-6.36-1.54-12.19,3.15-18.05,1.02-1.27.88-1.96-.63-2.7-3.38-1.64-6.9-3.17-9.78-5.3-3.75-2.78-7.39-2.46-12.05-.69-9.12,3.47-15.25,12.27-13.22,20.06,8.64,33.14,17.32,66.26,25.99,99.39h0ZM108.23,395.96c-4.26,1.17-7.56,2.06-10.84,2.98-1.4.38-2.38,1.16-2.98,2.38-1.64,3.35-4.16,6.3-6.48,9.35-4.01,5.26-4.17,5.5,1.91,7.65,8.14,2.87,12.39,7.67,14.37,15.43,15.3,59.96,31.15,119.76,46.82,179.62,1.99,7.62,4.61,15.04,7.46,22.39,11.37,29.47,31.8,52.25,63.75,66.68,2.52,1.14,3.64.68,5.09-1.37,3.45-4.87,6.93-9.74,9.71-14.88,15.05-27.72,17.58-55.73,12.48-83.91-3.1-17.13-7.88-33.81-12.26-50.59-12.87-49.27-25.81-98.51-38.85-147.72-1.2-4.51-.6-8.62,2.42-12.76,1.42-1.95,2.57-4.08,4.26-5.86,2.59-2.72,1.79-3.98-1.26-5.32-4.12-1.81-8.69-3.04-12.16-5.78-.7-.55-1.71-.58-2.67-.33-3.37.89-6.73,1.83-10.37,2.83.56.69.72.99.98,1.2,2.78,2.17,6.35,3.36,9.45,5.14,4.34,2.48,4.77,3.59,1.69,7.57-3.77,4.9-4.58,9.62-3.16,15,13.39,50.53,25.6,101.4,39.5,151.79,4.46,16.17,9.09,32.28,12.53,48.74,5.63,26.99-1.55,52.87-16.63,78.3-.86,1.46-1.72,2.8-3.98,1.53-13.09-7.48-25.85-15.23-35.27-26.27-10.13-11.88-15.46-25.85-19.58-40.2-18.23-63.52-34.4-127.62-50.55-191.72-1.52-6.02-4.05-10.65-10.83-13.14-4.23-1.55-4.3-3.26-1.77-6.92,2.49-3.6,4.97-7.23,7.2-11.83l.02.02h0ZM143.82,392.55c4.8-11.2,14.59-15.89,26.29-18.69,10.78-2.58,21.38-6.09,32.41-7.31,23.35-2.59,45.98-2.67,65.32,8.5,1.24.71,2.17.97,3.27-.51,2.65-3.58,5.44-7.1,8.17-10.64.9-1.17,1.23-2-.77-2.46-12.72-2.99-23.32-9.05-33.9-15.17-8.43-4.87-17.04-9.53-26.8-12.57-12.52-3.9-24.42-3.64-35.07,6.47-1.89,1.8-4.16,3.31-6.14,5.06-3.26,2.88-7.02,4.7-11.42,5.88-16.16,4.31-32.4,8.39-48.35,13.37-11.61,3.63-22.68,5.33-34.05,2.52-10.75-2.66-19.83,1.09-27.52,8.61-2.15,2.1-4.28,4.23-6.23,6.47-5.55,6.38-9.6,13.41-13.58,20.47-6.29,11.19-12.43,22.44-22.73,31.73-1.5,1.35-.93,1.86.59,2.45,4.13,1.62,8.22,3.29,12.24,5.06,1.94.86,2.98.62,4.01-1.34,6.71-12.63,18.11-21.86,31-29.87,17.27-10.72,36.68-16.59,56.32-21.93,8.98-2.44,17.2-2.18,24.49,2.21.72.43,1.39.94,2.46,1.67h0ZM101.69,230.76c11.72-3.06,19.47-10.54,25.01-19.91,6.6-11.16,4.16-21.21-6.92-27.43-10.35-5.81-22.04-9.78-32.99-14.75-1.46-.66-2.43-.46-3.34.84-6.92,9.85-15.24,19.04-21.25,29.3-2.16,3.69-3.18,7.56-3.04,11.59.64,18.14,28.39,25.54,42.54,20.35h0s0,0,0,0ZM111.43,277.37l-.34.09c-1.39-5.3-2.79-10.59-4.15-15.88-.42-1.65.1-3.02,2.29-3.62,2.05-.56,2.97.4,3.44,1.86.35,1.08.79,2.15,1.06,3.25,1.9,7.64,3.75,15.29,5.66,22.91,1.96,7.84,1.97,7.79,11.53,4.97,1.99-.58,2.82-1.34,3.12-3.2,2.31-13.88-1.48-25.92-10.34-36.57-1.06-1.27-2.06-1.66-3.95-1.16-7.92,2.07-15.86,4.05-23.8,6.01-1.61.4-2.63.95-2.91,2.58-2.01,11.99-.95,23.32,5.84,33.42,4.57,6.8,4.61,6.69,13.93,4,2.63-.75,3.21-1.66,2.58-3.79-1.46-4.91-2.65-9.91-3.95-14.87h0ZM123.41,314.69l-.03-.13c4.22-1.16,8.44-2.37,12.67-3.45,2.17-.56,2.95-1.5,2.41-3.35-1.02-3.5-1.97-7.02-2.77-10.59-.46-2.01-1.77-2.07-3.8-1.53-8.16,2.21-16.34,4.38-24.52,6.46-2.15.54-3.11,1.29-2.56,3.21,1.06,3.73,2.04,7.48,2.94,11.24.41,1.71,1.34,2.14,3.4,1.52,4.06-1.22,8.17-2.27,12.26-3.4h0ZM124.76,319.2l-.04-.14c-3.83,1.05-7.61,2.28-11.47,3.09-3.18.66-3.63,1.98-2.93,4.26.93,3.04,1.76,6.13,2.42,9.25.46,2.21,1.64,2.61,4.19,1.86,7.98-2.33,15.99-4.57,24.03-6.68,2.7-.71,3.17-1.8,2.54-3.83-.93-3.04-1.74-6.14-2.38-9.26-.44-2.15-1.5-2.76-4.1-1.95-4.04,1.26-8.16,2.28-12.25,3.4h-.01ZM130.26,338.69l-.1-.39c-4.22,1.16-8.41,2.39-12.64,3.44-2.06.51-2.72,1.39-2.3,3.05.92,3.52,1.83,7.05,2.65,10.59.35,1.53,1.21,2.03,3.09,1.5,8.55-2.42,17.1-4.81,25.67-7.17,1.82-.5,2.44-1.35,2.01-2.89-.95-3.4-1.85-6.81-2.65-10.24-.37-1.59-1.2-1.95-3.08-1.39-4.19,1.25-8.43,2.34-12.64,3.5h0s0,0,0,0ZM106.41,248.82l-.04-.14c3.3-.91,6.59-1.87,9.91-2.7,1.96-.49,2.77-1,1.88-2.86-1.43-2.99-2.3-6.21-2.45-9.57-.09-2.04-.91-2.18-3-1.18-6.1,2.92-12.56,4.65-19.28,5.12-2.68.18-3.38.93-2.49,3.02,1.43,3.35,3.07,6.64,2.83,10.49-.1,1.66,1.39.88,2.31.65,3.45-.9,6.87-1.86,10.31-2.81h0v-.02Z" style="stroke-width: 0px;"/>
  <path d="M133.21,376.16c-12.28,3.78-31.06,7.5-48.68,14.96-13.26,5.6-25.79,12.34-37.16,20.75-6.79,5.03-11.64,11.28-16.2,17.72-1.24,1.77-2.5,3.51-3.76,5.26-.78,1.07-1.71,1.58-3.05.93-1.19-.57-2.19-1.23-1.64-2.67.17-.45.41-.9.71-1.31,10.67-14.72,19.55-30.28,31.63-44.32,3.53-4.11,7.25-8.11,12.37-10.94,5.1-2.82,10.37-4.14,16.01-3.06.91.17,1.86.21,2.71.49,14.18,4.71,28.68,2.88,43.52-1.83,9.27-2.93,18.76-5.18,28.1-7.92,10.51-3.09,18.9-9.08,25.96-16.41,8.18-8.49,17.73-10.03,28.37-7.29,7.42,1.92,14.3,4.77,21.04,7.86,10.82,4.98,21.7,9.87,32.55,14.81.57.26,1.19.47,1.7.8,1.57,1.02,3.92,1.72,2.11,4.25-1.96,2.75-3.82,1.1-5.39.26-22.97-12.39-49.17-11.1-76.02-6.52-16.61,2.84-32.71,8.05-54.93,14.17h.02ZM48.51,405.08c14.91-9.54,30.71-17.33,48.85-23.31-4.88-1.15-8.64-1.79-12.13-2.94-6.87-2.25-12.79-.6-18.29,4.05-7.67,6.5-13.37,14.11-18.43,22.19h0ZM180.21,358.63c17.83-3.67,35.46-5.12,53.12-4.35-3.19-1.68-6.36-3.1-9.64-4.38-5.9-2.29-11.85-4.57-18.47-5.38-4.4-.54-8.89-.5-12.78,2.49-4.51,3.47-8.45,7.43-12.24,11.61h0Z" style="stroke-width: 0px;"/>
  <g>
    <path d="M199.79,42.15h.38c.12,0,.25-.06.38-.19h.76l.19-.19h.19l-17.66,18.04-26.58-8.92v92.85c.5.51,1.07.76,1.71.76h.95c.25.13.63.19,1.14.19h.95c.12.13.44.19.95.19h1.71c13.04,0,26.52-6.01,40.45-18.04l-1.52,6.08c-10.89,17.6-25.13,27.22-42.72,28.86l-22.79-.76c-14.05-2.53-25.32-9.49-33.8-20.89-8.1-10.76-12.15-23.55-12.15-38.36v-.76c0-.25.06-.44.19-.57v-1.52c0-.25.06-.44.19-.57v-.38l5.51-20.89c8.1-16.08,19.24-27.34,33.42-33.8l2.66-.38c-.13.38-.44.82-.95,1.33s-.95.82-1.33.95c-2.03,1.77-4.05,3.77-6.08,5.98-2.03,2.22-4.12,4.59-6.27,7.12-3.93,4.68-6.65,9.94-8.17,15.76l-.38,1.9v.95c-.13.25-.19.57-.19.95-.26,1.27-.38,1.84-.38,1.71v.76c-.13.25-.19.57-.19.95-.25.76-.41,1.39-.47,1.9-.07.51-.09,1.33-.09,2.47-.13.76-.19,1.46-.19,2.09v1.9c0,6.2.95,12.22,2.85,18.04,1.64,5.06,4.62,10.44,8.92,16.14.12-.12.38-.44.76-.95,0,.51.38-.38,1.14-2.66l.38-1.52v-54.88l38.55-33.42c11.65,7.85,24.18,11.77,37.6,11.77ZM144.54,54.69v41.58c0,4.94-1.33,9.37-3.99,13.29-1.65,2.66-4.62,6.39-8.92,11.2-.26.25-.51.54-.76.85-.25.32-.57.73-.95,1.23l-1.9,1.9c-.89.63-1.96,1.77-3.23,3.42,1.77,1.77,3.83,3.64,6.17,5.6,2.34,1.96,5.09,4.02,8.26,6.17,4.43,2.53,8.8,3.8,13.1,3.8l-.38-95.32-7.41,6.27Z" style="stroke-width: 0px;"/>
    <path d="M247.83,32.47h4.37c-3.67,3.29-6.14,6.39-7.41,9.3-1.27,2.91-2.22,6.71-2.85,11.39v33.42l25.82-21.46c3.8,3.04,6.71,6,8.73,8.91,2.15,3.29,3.73,6.95,4.75,11v58.39c-2.41,11.38-8.35,20.13-17.85,26.26-9.49,6.13-19.69,10.33-30.57,12.61h-.57c-.13-.13-.28-.22-.47-.28-.19-.07-.6-.22-1.23-.47h-.19c-.13-.13-.25-.19-.38-.19h-.19c-.13-.13-.26-.19-.38-.19l1.14-2.85c17.59-5.82,28.48-15.13,32.66-27.91v-63.04l-7.22-6.65-14.43,11.77v47.85l5.89,7.03-15,12.91-14.81-12.91,5.89-7.03v-61.33l-9.87-.38v-10.06h10.63v-15.38c-1.52-7.34-4.56-12.85-9.11-16.52l1.33-.38c.38.38.88.57,1.52.57h.76c.12.13.38.19.76.19,1.14.38,2.75,1.14,4.84,2.28,2.09,1.14,3.58,2.34,4.46,3.61.12,0,.25.13.38.38.12.25.19.44.19.57l.76.76c5.19-6.58,11.08-10.51,17.66-11.77v-.38Z" style="stroke-width: 0px;"/>
    <path d="M545.19,42.15h.38c.12,0,.25-.06.38-.19h.76l.19-.19h.19l-17.66,18.04-26.58-8.92v92.85c.5.51,1.07.76,1.71.76h.95c.25.13.63.19,1.14.19h.95c.12.13.44.19.95.19h1.71c13.04,0,26.52-6.01,40.45-18.04l-1.52,6.08c-10.89,17.6-25.13,27.22-42.72,28.86l-22.79-.76c-14.05-2.53-25.32-9.49-33.8-20.89-8.1-10.76-12.15-23.55-12.15-38.36v-.76c0-.25.06-.44.19-.57v-1.52c0-.25.06-.44.19-.57v-.38l5.51-20.89c8.1-16.08,19.24-27.34,33.42-33.8l2.66-.38c-.13.38-.45.82-.95,1.33-.51.51-.95.82-1.33.95-2.03,1.77-4.05,3.77-6.08,5.98-2.03,2.22-4.12,4.59-6.27,7.12-3.93,4.68-6.65,9.94-8.17,15.76l-.38,1.9v.95c-.13.25-.19.57-.19.95-.26,1.27-.38,1.84-.38,1.71v.76c-.13.25-.19.57-.19.95-.26.76-.41,1.39-.47,1.9-.07.51-.1,1.33-.1,2.47-.13.76-.19,1.46-.19,2.09v1.9c0,6.2.95,12.22,2.85,18.04,1.64,5.06,4.62,10.44,8.93,16.14.12-.12.38-.44.76-.95,0,.51.38-.38,1.14-2.66l.38-1.52v-54.88l38.55-33.42c11.65,7.85,24.18,11.77,37.6,11.77ZM489.94,54.69v41.58c0,4.94-1.33,9.37-3.99,13.29-1.65,2.66-4.62,6.39-8.92,11.2-.26.25-.51.54-.76.85-.26.32-.57.73-.95,1.23l-1.9,1.9c-.89.63-1.96,1.77-3.23,3.42,1.77,1.77,3.83,3.64,6.17,5.6,2.34,1.96,5.1,4.02,8.26,6.17,4.43,2.53,8.8,3.8,13.1,3.8l-.38-95.32-7.4,6.27Z" style="stroke-width: 0px;"/>
    <path d="M574.05,65.13h.38c.38.25.76.38,1.14.38h.38c.12.13.25.26.38.38.12.13.31.19.57.19.76.76,1.33,1.23,1.71,1.42s.66.41.85.66c.19.25.35.44.47.57.12.13.31.28.57.47.25.19.41.35.47.47.06.13.19.32.38.57.19.25.29.44.29.57,0-.38.19,0,.57,1.14.38.25.76.76,1.14,1.52.25.13.44.51.57,1.14l.38,1.14c.12,0,.25.13.38.38.12.26.19.51.19.76s.1.57.29.95c.19.38.31.6.38.66.06.07.19.41.38,1.04.19.64.31,1.01.38,1.14.06.13.16.32.28.57v.57l18.42-16.71,12.15,14.34.38,1.53-12.53,11.47-11.01-11.77-7.41,6.65v49.37c2.53,3.29,5.63,5.76,9.3,7.41l6.84-5.89,3.42,3.23-22.03,18.8c-6.46-6.96-13.61-12.09-21.46-15.38,2.28-1.77,3.73-3.86,4.37-6.27,1.52-2.15,2.28-4.75,2.28-7.79v-41.77c-.13-.12-.19-.38-.19-.76v-.76c-.13-.12-.22-.41-.29-.85-.07-.44-.67-1.68-1.8-3.7-.76-1.14-1.71-2.02-2.85-2.66l-4.37,2.28-1.52-2.63,15.76-14.84Z" style="stroke-width: 0px;"/>
  </g>
</svg>